<svg width="1440" height="561" viewBox="0 0 1440 561" fill="none" xmlns="http://www.w3.org/2000/svg">
<path fill-rule="evenodd" clip-rule="evenodd" d="M0 311.667L36.4917 322.056C71.725 332.444 143.45 353.222 215.175 332.444C288.158 311.667 359.883 249.333 431.608 187C503.333 124.667 575.058 62.3333 646.783 83.1111C718.508 103.889 791.492 207.778 863.217 280.5C934.942 353.222 1006.67 394.778 1078.39 436.333C1150.12 477.889 1221.84 519.444 1294.82 446.722C1366.55 374 1438.27 187 1473.51 93.5L1510 0V561H1473.51C1438.27 561 1366.55 561 1294.82 561C1221.84 561 1150.12 561 1078.39 561C1006.67 561 934.942 561 863.217 561C791.492 561 718.508 561 646.783 561C575.058 561 503.333 561 431.608 561C359.883 561 288.158 561 215.175 561C143.45 561 71.725 561 36.4917 561H0V311.667Z" fill="url(#paint0_linear_1_4)"/>
<defs>
<linearGradient id="paint0_linear_1_4" x1="10.4861" y1="427" x2="1510" y2="423.151" gradientUnits="userSpaceOnUse">
<stop stop-color="#007BFF"/>
<stop offset="0.9999" stop-color="#12D0FF"/>
<stop offset="1" stop-color="#14DAFF" stop-opacity="0"/>
</linearGradient>
</defs>
</svg>
